<svg width="97" height="13" viewBox="0 0 97 13" fill="none" xmlns="http://www.w3.org/2000/svg">
<path d="M6.44 6.272C7.06933 6.38933 7.58667 6.704 7.992 7.216C8.39733 7.728 8.6 8.31467 8.6 8.976C8.6 9.57333 8.45067 10.1013 8.152 10.56C7.864 11.008 7.44267 11.36 6.888 11.616C6.33333 11.872 5.67733 12 4.92 12H0.104V0.832H4.712C5.46933 0.832 6.12 0.954666 6.664 1.2C7.21867 1.44533 7.63467 1.78667 7.912 2.224C8.2 2.66133 8.344 3.15733 8.344 3.712C8.344 4.36267 8.168 4.90667 7.816 5.344C7.47467 5.78133 7.016 6.09067 6.44 6.272ZM2.344 5.44H4.392C4.92533 5.44 5.336 5.32267 5.624 5.088C5.912 4.84267 6.056 4.496 6.056 4.048C6.056 3.6 5.912 3.25333 5.624 3.008C5.336 2.76267 4.92533 2.64 4.392 2.64H2.344V5.44ZM4.6 10.176C5.144 10.176 5.56533 10.048 5.864 9.792C6.17333 9.536 6.328 9.17333 6.328 8.704C6.328 8.224 6.168 7.85067 5.848 7.584C5.528 7.30667 5.096 7.168 4.552 7.168H2.344V10.176H4.6ZM18.9453 7.376C18.9453 7.696 18.9239 7.984 18.8813 8.24H12.4012C12.4546 8.88 12.6786 9.38133 13.0732 9.744C13.4679 10.1067 13.9532 10.288 14.5293 10.288C15.3612 10.288 15.9532 9.93067 16.3053 9.216H18.7213C18.4653 10.0693 17.9746 10.7733 17.2492 11.328C16.5239 11.872 15.6333 12.144 14.5773 12.144C13.7239 12.144 12.9559 11.9573 12.2732 11.584C11.6012 11.2 11.0732 10.6613 10.6892 9.968C10.3159 9.27467 10.1292 8.47467 10.1292 7.568C10.1292 6.65067 10.3159 5.84533 10.6892 5.152C11.0626 4.45867 11.5852 3.92533 12.2572 3.552C12.9292 3.17867 13.7026 2.992 14.5773 2.992C15.4199 2.992 16.1719 3.17333 16.8333 3.536C17.5053 3.89867 18.0226 4.416 18.3853 5.088C18.7586 5.74933 18.9453 6.512 18.9453 7.376ZM16.6252 6.736C16.6146 6.16 16.4066 5.70133 16.0012 5.36C15.5959 5.008 15.0999 4.832 14.5132 4.832C13.9586 4.832 13.4893 5.00267 13.1052 5.344C12.7319 5.67467 12.5026 6.13867 12.4172 6.736H16.6252ZM26.1482 12L23.1402 8.224V12H20.9002V0.16H23.1402V6.896L26.1162 3.136H29.0282L25.1242 7.584L29.0603 12H26.1482ZM38.804 7.376C38.804 7.696 38.7827 7.984 38.74 8.24H32.26C32.3133 8.88 32.5373 9.38133 32.932 9.744C33.3267 10.1067 33.812 10.288 34.388 10.288C35.22 10.288 35.812 9.93067 36.164 9.216H38.58C38.324 10.0693 37.8333 10.7733 37.108 11.328C36.3827 11.872 35.492 12.144 34.436 12.144C33.5827 12.144 32.8147 11.9573 32.132 11.584C31.46 11.2 30.932 10.6613 30.548 9.968C30.1747 9.27467 29.988 8.47467 29.988 7.568C29.988 6.65067 30.1747 5.84533 30.548 5.152C30.9213 4.45867 31.444 3.92533 32.116 3.552C32.788 3.17867 33.5613 2.992 34.436 2.992C35.2787 2.992 36.0307 3.17333 36.692 3.536C37.364 3.89867 37.8813 4.416 38.244 5.088C38.6173 5.74933 38.804 6.512 38.804 7.376ZM36.484 6.736C36.4733 6.16 36.2653 5.70133 35.86 5.36C35.4547 5.008 34.9587 4.832 34.372 4.832C33.8173 4.832 33.348 5.00267 32.964 5.344C32.5907 5.67467 32.3613 6.13867 32.276 6.736H36.484ZM45.671 3.008C46.727 3.008 47.5803 3.344 48.231 4.016C48.8817 4.67733 49.207 5.60533 49.207 6.8V12H46.967V7.104C46.967 6.4 46.791 5.86133 46.439 5.488C46.087 5.104 45.607 4.912 44.999 4.912C44.3803 4.912 43.8897 5.104 43.527 5.488C43.175 5.86133 42.999 6.4 42.999 7.104V12H40.759V3.136H42.999V4.24C43.2977 3.856 43.6763 3.55733 44.135 3.344C44.6043 3.12 45.1163 3.008 45.671 3.008ZM51.0811 7.536C51.0811 6.64 51.2571 5.84533 51.6091 5.152C51.9718 4.45867 52.4625 3.92533 53.0811 3.552C53.6998 3.17867 54.3878 2.992 55.1451 2.992C55.7211 2.992 56.2705 3.12 56.7931 3.376C57.3158 3.62133 57.7318 3.952 58.0411 4.368V0.16H60.3131V12H58.0411V10.688C57.7638 11.1253 57.3745 11.4773 56.8731 11.744C56.3718 12.0107 55.7905 12.144 55.1291 12.144C54.3825 12.144 53.6998 11.952 53.0811 11.568C52.4625 11.184 51.9718 10.6453 51.6091 9.952C51.2571 9.248 51.0811 8.44267 51.0811 7.536ZM58.0571 7.568C58.0571 7.024 57.9505 6.56 57.7371 6.176C57.5238 5.78133 57.2358 5.48267 56.8731 5.28C56.5105 5.06667 56.1211 4.96 55.7051 4.96C55.2891 4.96 54.9051 5.06133 54.5531 5.264C54.2011 5.46667 53.9131 5.76533 53.6891 6.16C53.4758 6.544 53.3691 7.00267 53.3691 7.536C53.3691 8.06933 53.4758 8.53867 53.6891 8.944C53.9131 9.33867 54.2011 9.64267 54.5531 9.856C54.9158 10.0693 55.2998 10.176 55.7051 10.176C56.1211 10.176 56.5105 10.0747 56.8731 9.872C57.2358 9.65867 57.5238 9.36 57.7371 8.976C57.9505 8.58133 58.0571 8.112 58.0571 7.568ZM70.6494 9.936L72.8894 3.136H75.2734L71.9934 12H69.2734L66.0094 3.136H68.4094L70.6494 9.936ZM76.2755 7.536C76.2755 6.64 76.4515 5.84533 76.8035 5.152C77.1662 4.45867 77.6515 3.92533 78.2595 3.552C78.8782 3.17867 79.5662 2.992 80.3235 2.992C80.9848 2.992 81.5608 3.12533 82.0515 3.392C82.5528 3.65867 82.9528 3.99467 83.2515 4.4V3.136H85.5075V12H83.2515V10.704C82.9635 11.12 82.5635 11.4667 82.0515 11.744C81.5502 12.0107 80.9688 12.144 80.3075 12.144C79.5608 12.144 78.8782 11.952 78.2595 11.568C77.6515 11.184 77.1662 10.6453 76.8035 9.952C76.4515 9.248 76.2755 8.44267 76.2755 7.536ZM83.2515 7.568C83.2515 7.024 83.1448 6.56 82.9315 6.176C82.7182 5.78133 82.4302 5.48267 82.0675 5.28C81.7048 5.06667 81.3155 4.96 80.8995 4.96C80.4835 4.96 80.0995 5.06133 79.7475 5.264C79.3955 5.46667 79.1075 5.76533 78.8835 6.16C78.6702 6.544 78.5635 7.00267 78.5635 7.536C78.5635 8.06933 78.6702 8.53867 78.8835 8.944C79.1075 9.33867 79.3955 9.64267 79.7475 9.856C80.1102 10.0693 80.4942 10.176 80.8995 10.176C81.3155 10.176 81.7048 10.0747 82.0675 9.872C82.4302 9.65867 82.7182 9.36 82.9315 8.976C83.1448 8.58133 83.2515 8.112 83.2515 7.568ZM92.9272 3.008C93.9832 3.008 94.8366 3.344 95.4872 4.016C96.1379 4.67733 96.4632 5.60533 96.4632 6.8V12H94.2232V7.104C94.2232 6.4 94.0472 5.86133 93.6952 5.488C93.3432 5.104 92.8632 4.912 92.2552 4.912C91.6366 4.912 91.1459 5.104 90.7832 5.488C90.4312 5.86133 90.2552 6.4 90.2552 7.104V12H88.0152V3.136H90.2552V4.24C90.5539 3.856 90.9326 3.55733 91.3912 3.344C91.8606 3.12 92.3726 3.008 92.9272 3.008Z" fill="#191C1F"/>
</svg>
