<svg width="16" height="16" viewBox="0 0 16 16" fill="none" xmlns="http://www.w3.org/2000/svg"><path d="M5.032 14.5c6.037 0 9.34-5.002 9.34-9.34 0-.142 0-.283-.01-.424A6.678 6.678 0 0016 3.036c-.6.267-1.235.44-1.885.517a3.294 3.294 0 001.443-1.815 6.578 6.578 0 01-2.085.797A3.286 3.286 0 007.88 5.528a9.32 9.32 0 01-6.765-3.43A3.285 3.285 0 002.13 6.482 3.254 3.254 0 01.64 6.07v.041A3.284 3.284 0 003.274 9.33c-.484.132-.99.151-1.483.057a3.287 3.287 0 003.067 2.28A6.586 6.586 0 010 13.025a9.293 9.293 0 005.032 1.472" fill="#707C80"/></svg>