<svg width="24" height="24" viewBox="0 0 24 24" fill="none" xmlns="http://www.w3.org/2000/svg"><path d="M7.548 21.75c9.056 0 14.01-7.503 14.01-14.01 0-.213 0-.425-.015-.636A10.02 10.02 0 0024 4.555a9.815 9.815 0 01-2.828.775 4.94 4.94 0 002.165-2.724 9.864 9.864 0 01-3.127 1.196 4.929 4.929 0 00-8.391 4.49A13.98 13.98 0 011.67 3.149 4.928 4.928 0 003.195 9.72 4.88 4.88 0 01.96 9.105v.062a4.926 4.926 0 003.95 4.827 4.915 4.915 0 01-2.223.084 4.93 4.93 0 004.6 3.42A9.88 9.88 0 010 19.538a13.941 13.941 0 007.548 2.209" fill="#191C1F"/></svg>