<svg width="116" height="21" fill="none" xmlns="http://www.w3.org/2000/svg"><path d="M4.29 19.911H.229V6.648c0-.328.032-.655.13-.983.099-.295.295-.59.623-.819.262-.196.491-.294.753-.36a6.31 6.31 0 01.786-.065H7.63c.164 0 .393 0 .655.032.262.033.524.066.819.164.295.098.59.197.884.36.295.164.557.393.819.655.262.295.491.655.655 1.016.164.36.262.753.36 1.146.066.393.131.786.131 1.146.033.36.033.688.033.983 0 .262 0 .556-.033.95 0 .392-.033.785-.098 1.211-.066.426-.131.852-.262 1.277-.131.426-.295.82-.492 1.114-.262.393-.524.688-.851.884-.327.23-.655.36-.982.491-.36.099-.688.164-1.016.197-.327.033-.655.033-.95.033H4.29v3.831zm1.8-6.91c.46 0 .787-.098 1.016-.295a1.93 1.93 0 00.491-.59c.099-.228.197-.49.197-.818.033-.295.033-.655.033-1.015 0-.328 0-.655-.033-.917-.033-.295-.066-.524-.164-.786-.098-.23-.196-.426-.327-.557a1.665 1.665 0 00-.426-.295c-.131-.065-.295-.098-.426-.13-.131 0-.23-.033-.295-.033h-1.44a.553.553 0 00-.164.065.716.716 0 00-.164.098c-.098.099-.131.23-.131.393v4.88H6.09z" fill="currentColor"/><path d="M4.552 20.141H0V6.648c0-.36.033-.72.131-1.048.098-.36.328-.688.688-.95.294-.229.59-.36.884-.393a7.06 7.06 0 01.819-.065H7.63c.196 0 .425 0 .687.033.262.032.557.065.852.163.295.099.622.23.917.393.328.164.622.426.884.72.295.328.524.689.688 1.082.164.393.295.786.36 1.211.066.393.131.82.164 1.18.033.392.033.72.033.982s0 .557-.033.982c0 .393-.066.82-.098 1.245-.066.426-.164.884-.262 1.31-.131.458-.295.851-.524 1.179-.262.426-.557.72-.917.95a3.375 3.375 0 01-1.048.49c-.36.1-.72.165-1.048.197-.328.033-.655.033-.95.033H4.552v3.8zM.46 19.65h3.6v-3.734h3.242c.295 0 .59 0 .917-.032.328-.033.655-.099.983-.197.327-.098.622-.262.95-.458.294-.197.556-.459.785-.82.197-.294.36-.654.459-1.08a8.42 8.42 0 00.262-1.244c.066-.426.098-.82.098-1.212 0-.393.033-.72.033-.95 0-.262 0-.59-.033-.95-.032-.36-.065-.72-.13-1.113a7.157 7.157 0 00-.328-1.114c-.164-.36-.36-.687-.622-.95a3.311 3.311 0 00-.754-.622c-.262-.163-.557-.262-.819-.36-.262-.065-.524-.13-.786-.13-.229-.034-.458-.034-.622-.034H2.522c-.262 0-.491.033-.753.066-.23.033-.459.13-.655.295-.263.229-.459.458-.525.72-.098.295-.13.59-.13.917V19.65zm5.633-6.42H4.06V8.123c0-.23.066-.393.197-.557.032-.065.13-.098.229-.164.098-.065.196-.065.262-.065h1.474c.065 0 .163 0 .294.033.164.032.328.065.491.13.164.066.328.197.492.328.163.164.295.36.393.655.098.262.13.524.163.852.033.294.033.59.033.95 0 .392 0 .753-.033 1.047-.032.328-.098.623-.229.885-.098.229-.295.458-.556.687-.295.197-.688.328-1.18.328zm-1.54-.458h1.54c.393 0 .687-.098.851-.262.197-.196.36-.36.459-.524.098-.196.163-.458.196-.72.033-.295.033-.622.033-1.015 0-.328 0-.655-.033-.917a4.698 4.698 0 00-.131-.72 1.208 1.208 0 00-.262-.46c-.131-.098-.23-.196-.36-.261a.732.732 0 00-.328-.099c-.13 0-.196-.032-.262-.032h-1.44s-.034 0-.099.032c-.066.066-.098.066-.098.066-.066.065-.066.13-.066.23v4.682zm12.51-8.352v5.83c0 .557.033.983.098 1.31.066.295.164.557.295.72.098.165.23.328.393.427.164.098.295.163.458.196.164.033.295.066.459.098.164 0 .295.033.426.033h.753c.327 0 .557-.065.72-.23.099-.13.164-.228.197-.36 0-.13.033-.229.033-.36V4.421h4.06v9.334c0 .327-.032.655-.098.982-.065.328-.262.622-.556.884-.262.262-.59.393-.95.459-.36.065-.622.065-.852.065h-5.043c-.786 0-1.441-.098-1.932-.294-.459-.23-.852-.459-1.114-.72a3.426 3.426 0 01-1.113-1.868 11.526 11.526 0 01-.262-2.456V4.421h4.028z" fill="currentColor"/><path d="M22.466 16.375h-5.01c-.82 0-1.507-.099-1.998-.328-.524-.23-.918-.458-1.212-.72a3.682 3.682 0 01-1.18-1.998 10.435 10.435 0 01-.294-2.522V4.192h4.52v6.058c0 .524.032.95.098 1.245.065.262.163.491.262.655a.786.786 0 00.327.327c.131.099.262.131.393.197.131.033.295.065.426.065s.262.033.393.033h.753c.262 0 .426-.065.524-.164.066-.065.131-.163.131-.229 0-.098.033-.23.033-.327v-7.86h4.52v9.563c0 .36-.033.72-.132 1.048a1.87 1.87 0 01-.654.982 1.884 1.884 0 01-1.049.524c-.327.033-.622.066-.851.066zM13.23 4.65v6.157c0 .852.099 1.67.262 2.39a3.38 3.38 0 001.048 1.77c.263.229.623.458 1.081.654.459.197 1.081.295 1.834.295h4.978c.197 0 .491-.033.819-.065.295-.033.557-.164.819-.393.262-.23.425-.492.491-.754.066-.294.098-.59.098-.917V4.65h-3.602v7.402c0 .13 0 .262-.033.393a.91.91 0 01-.262.49c-.197.197-.491.328-.884.328h-.754c-.13 0-.294 0-.425-.032a1.3 1.3 0 01-.491-.099c-.164-.032-.328-.13-.524-.229a1.33 1.33 0 01-.459-.491c-.131-.197-.23-.459-.295-.786a6.85 6.85 0 01-.13-1.343V4.65h-3.57zm16.999-.23v5.83c0 .557.033.983.098 1.31.066.295.164.557.295.72.098.165.23.328.393.427.164.098.295.163.459.196.163.033.294.066.458.098.164 0 .295.033.426.033h.753c.328 0 .557-.065.72-.23.099-.13.164-.228.197-.36 0-.13.033-.229.033-.36V4.421h4.06v9.334c0 .327-.032.655-.13.982-.066.328-.262.622-.557.884-.262.262-.59.393-.95.459-.36.065-.622.065-.851.065h-5.011c-.786 0-1.441-.098-1.932-.294-.492-.197-.885-.426-1.146-.688a3.426 3.426 0 01-1.114-1.867c-.197-.753-.262-1.572-.262-2.456V4.42h4.061z" fill="currentColor"/><path d="M35.632 16.375h-5.01c-.82 0-1.507-.099-1.998-.328-.524-.23-.917-.458-1.212-.72a3.682 3.682 0 01-1.179-1.998c-.196-.753-.262-1.605-.262-2.522V4.192h4.487v6.058c0 .524.033.95.098 1.245.066.262.164.491.262.655.098.13.197.262.328.327.13.099.262.131.393.197.13.033.294.065.425.065s.262.033.393.033h.754c.262 0 .425-.065.524-.164.065-.065.13-.163.13-.229 0-.13.033-.23.033-.327v-7.86h4.52v9.563c0 .36-.033.687-.131 1.048a1.87 1.87 0 01-.655.982 1.884 1.884 0 01-1.048.524c-.328.033-.622.066-.852.066zM26.397 4.65v6.157c0 .852.098 1.67.262 2.39a3.512 3.512 0 001.048 1.77c.262.229.622.458 1.08.654.46.197 1.081.295 1.835.295H35.6c.196 0 .49-.033.818-.065.295-.033.557-.164.82-.393.261-.23.425-.492.49-.754.066-.294.099-.622.099-.917V4.65h-3.603v7.402c0 .13 0 .229-.033.393a.91.91 0 01-.262.49c-.196.197-.49.328-.884.328h-.753c-.131 0-.295 0-.426-.032-.164 0-.327-.033-.491-.099-.164-.032-.328-.13-.524-.229a1.33 1.33 0 01-.459-.491c-.13-.197-.229-.459-.294-.786a6.579 6.579 0 01-.131-1.343V4.65h-3.57zm12.968 4.617c0-.294.033-.59.066-.917.033-.327.098-.655.196-1.015.099-.36.23-.688.426-.982a3.71 3.71 0 01.72-.885 3.564 3.564 0 011.016-.59c.36-.13.72-.228 1.113-.294a5.95 5.95 0 011.048-.098h.917l2.686.065-.066 3.046-1.408-.033c-.393 0-.786.033-1.146.131-.36.099-.655.328-.95.688-.23.328-.393.688-.458 1.114-.066.393-.099.786-.131 1.113l-.131 5.6-4.061-.163.163-6.78z" fill="currentColor"/><path d="M43.492 16.375l-4.52-.099.164-7.008c0-.295.033-.59.065-.917.033-.36.099-.688.197-1.048.098-.36.262-.72.426-1.048.196-.328.458-.655.786-.917.327-.262.687-.491 1.08-.622.36-.131.754-.262 1.147-.328a6.685 6.685 0 011.113-.098h.95l2.947.065-.065 3.505-1.736-.033c-.327 0-.655.033-.982.098-.295.066-.557.262-.82.59-.228.294-.36.655-.425 1.015a6.616 6.616 0 00-.098 1.08l-.23 5.765zm-4.061-.557l3.602.065.131-5.37c0-.36.033-.754.131-1.147.066-.426.262-.851.524-1.212.295-.393.655-.655 1.08-.753.361-.098.787-.13 1.213-.13l1.179.032.065-2.587L44.9 4.65h-.917c-.328 0-.655.033-1.015.098a5.56 5.56 0 00-1.048.295 4.007 4.007 0 00-.95.557 2.7 2.7 0 00-.688.819 5.214 5.214 0 00-.59 1.932c-.032.327-.032.622-.065.917l-.196 6.55z" fill="currentColor"/><path d="M47.913 13.001h5.994c.098 0 .163-.032.262-.098.065-.033.098-.131.098-.23a.25.25 0 00-.066-.163c-.032-.033-.098-.066-.13-.098a1.414 1.414 0 00-.361-.131c-.164-.066-.459-.164-.884-.328l-2.358-.819a7.26 7.26 0 01-1.343-.622 2.463 2.463 0 01-.917-.917 2.893 2.893 0 01-.328-.982 5.535 5.535 0 01-.098-.983c0-.36.033-.72.099-1.08a2.98 2.98 0 01.392-1.016c.295-.458.655-.786 1.048-.917.426-.13.918-.196 1.507-.196h7.336v3.013h-6.223c-.098 0-.163 0-.262.033-.065 0-.098.032-.13.065-.033.033-.066.066-.066.131 0 .098.033.164.066.164.032.033.098.065.163.098.131.033.23.066.262.098.066.033.099.033.131.066.033.033.099.033.131.065.066.033.131.066.262.099l2.784.982a9.42 9.42 0 011.507.655c.425.23.753.524 1.015.95.262.393.425.819.491 1.244.066.426.098.754.098 1.016 0 .425-.065.884-.163 1.342-.131.459-.36.852-.754 1.18-.294.261-.59.392-.917.458a4.553 4.553 0 01-.884.098h-7.86v-3.177h.098z" fill="currentColor"/><path d="M55.773 16.375h-8.09v-3.603h6.223c.033 0 .065 0 .098-.033v-.033c-.033-.032-.065-.065-.098-.065s-.098-.066-.295-.098c-.164-.066-.458-.164-.917-.328l-2.358-.819c-.524-.196-.982-.393-1.408-.655a2.657 2.657 0 01-.983-1.015 3.298 3.298 0 01-.36-1.048 5.95 5.95 0 01-.098-1.048c0-.393.033-.753.13-1.146.066-.393.23-.753.427-1.08.327-.525.72-.852 1.179-1.016.425-.131.95-.196 1.572-.196h7.598v3.471h-6.518c-.032 0-.065 0-.13.033.032 0 .032.033.065.033.098.032.196.065.262.098a.553.553 0 00.164.065c.032.033.065.033.13.066.066.033.132.065.263.098l2.783.983a9.88 9.88 0 011.54.655c.458.229.818.589 1.113 1.047.295.426.459.885.524 1.343.066.426.098.786.098 1.048 0 .459-.065.917-.196 1.376-.131.491-.393.95-.819 1.277-.327.262-.655.459-1.015.524-.262.033-.59.066-.884.066zm-7.631-.459h7.63c.263 0 .557-.033.852-.098.262-.066.557-.197.819-.426a2.11 2.11 0 00.655-1.048c.098-.426.164-.851.164-1.277 0-.23-.033-.59-.066-.983a3.052 3.052 0 00-.426-1.146 2.245 2.245 0 00-.95-.884c-.425-.23-.916-.426-1.473-.622l-2.784-.983a1.523 1.523 0 01-.295-.098.554.554 0 00-.163-.066c-.033-.032-.066-.032-.131-.065-.066-.033-.131-.066-.262-.098a1.595 1.595 0 01-.23-.099.467.467 0 01-.163-.36c0-.196.098-.295.163-.327l.197-.099c.098-.032.23-.065.327-.032h5.961V4.65H50.86c-.557 0-1.048.066-1.44.197-.361.098-.656.393-.918.818-.164.295-.295.59-.36.917-.066.36-.098.688-.098 1.048 0 .295.032.623.098.95.065.36.164.655.295.917.196.328.458.622.818.819.393.229.82.425 1.31.622l2.358.819c.426.164.72.262.885.327.196.066.327.098.393.164a.586.586 0 01.163.131.437.437 0 01.131.328c0 .261-.13.36-.229.425a.687.687 0 01-.36.131h-5.764v2.653zm15.425 3.995h-4.06V6.648c0-.328.032-.655.13-.983.099-.295.295-.59.623-.851a1.96 1.96 0 01.753-.36 6.36 6.36 0 01.786-.066h5.109c.164 0 .393 0 .655.033.262.032.524.065.819.163.294.099.59.197.884.36.295.164.557.394.819.656.262.294.49.655.655 1.015.163.36.262.753.36 1.146.065.393.13.786.13 1.146.034.36.034.688.034.983 0 .262 0 .557-.033.95 0 .393-.033.786-.098 1.211-.066.426-.131.852-.262 1.278-.131.425-.295.818-.492 1.113-.262.393-.524.688-.851.884-.328.23-.655.36-.983.492a6.15 6.15 0 01-1.015.196 9.54 9.54 0 01-.95.033h-3.013v3.864zm1.802-6.91c.458 0 .786-.098 1.015-.295a1.93 1.93 0 00.491-.59c.098-.228.197-.49.197-.818.032-.295.032-.655.032-1.015 0-.328 0-.655-.032-.917-.033-.295-.066-.524-.164-.786-.098-.23-.197-.426-.328-.557a1.665 1.665 0 00-.425-.295c-.131-.065-.295-.098-.426-.13-.131 0-.23-.033-.295-.033h-1.44a.553.553 0 00-.165.065.714.714 0 00-.163.098c-.099.099-.131.23-.131.393v4.88h1.834z" fill="currentColor"/><path d="M63.797 20.14h-4.52V6.649c0-.36.033-.72.131-1.048.099-.36.328-.688.688-.95.295-.23.59-.36.884-.393.262-.033.557-.065.82-.065h5.108c.197 0 .426 0 .688.032.262.033.557.066.851.164.295.098.623.23.917.393.328.164.623.426.885.72.294.328.524.688.687 1.081.164.393.295.786.36 1.212.066.393.132.786.164 1.179.033.393.033.72.033.983 0 .229 0 .556-.033.982 0 .393-.065.819-.098 1.244a18.28 18.28 0 01-.262 1.31c-.13.459-.295.852-.524 1.18a3.19 3.19 0 01-.917.95 3.387 3.387 0 01-1.048.49 6.2 6.2 0 01-1.08.197c-.328.033-.656.033-.95.033h-2.784v3.799zm-4.061-.49h3.602v-3.734h3.243c.294 0 .59 0 .917-.033a5.23 5.23 0 00.982-.196c.328-.098.622-.262.95-.459.295-.196.557-.458.786-.819a3.26 3.26 0 00.458-1.08c.131-.426.197-.819.262-1.245a7.56 7.56 0 00.099-1.211c0-.393.032-.721.032-.95 0-.262 0-.59-.032-.95-.033-.36-.066-.72-.131-1.113a7.157 7.157 0 00-.328-1.114c-.164-.36-.36-.688-.622-.95a3.308 3.308 0 00-.753-.622 5.702 5.702 0 00-.82-.36c-.261-.066-.523-.131-.785-.131-.23-.033-.459-.033-.622-.033h-5.11c-.261 0-.49.033-.753.066-.229.032-.458.13-.655.294-.262.23-.458.459-.524.72-.098.296-.13.59-.13.918V19.65h-.066zm5.633-6.42h-2.03V8.122c0-.23.065-.393.196-.557.033-.066.13-.098.23-.164.13-.065.196-.065.294-.065h1.44c.066 0 .165 0 .296.032.163.033.327.066.49.131.165.066.328.197.492.328.164.164.295.393.393.655.098.262.131.524.164.819.033.294.033.589.033.95 0 .392 0 .753-.033 1.047-.033.328-.098.623-.23.884-.098.23-.294.459-.556.688-.295.23-.688.36-1.18.36zm-1.572-.458h1.54c.392 0 .687-.098.85-.262.23-.197.36-.36.46-.524.097-.197.163-.459.196-.72.032-.295.032-.623.032-1.016 0-.327 0-.622-.032-.917a4.704 4.704 0 00-.131-.72 1.208 1.208 0 00-.262-.459c-.131-.098-.23-.196-.36-.262a.746.746 0 00-.36-.098c-.132 0-.197-.033-.263-.033h-1.44s-.034 0-.1.033a.404.404 0 00-.097.066c-.066.065-.066.13-.066.229v4.683h.033zM80.075 4.42c.687 0 1.244.099 1.703.328.458.23.785.459 1.015.688.229.23.393.491.556.786.132.295.263.59.328.851.066.295.131.59.131.852.033.295.033.557.033.786v4.912c0 .295-.033.623-.098.95a1.873 1.873 0 01-.459.917 1.568 1.568 0 01-.884.524 4.998 4.998 0 01-.983.098h-6.484c-.36 0-.688-.032-1.048-.098a1.627 1.627 0 01-.95-.524 2.801 2.801 0 01-.491-.72c-.131-.295-.23-.557-.262-.885a4.065 4.065 0 01-.099-.884c0-.295-.032-.557-.032-.786 0-.262 0-.524.032-.786.033-.262.066-.557.132-.819.065-.262.163-.524.294-.753.131-.23.295-.426.524-.622.295-.262.623-.393.95-.459.328-.032.655-.065.983-.065h4.814v-.164c0-.098 0-.23-.033-.36a1.403 1.403 0 00-.164-.426c-.163-.23-.36-.36-.59-.393a4.85 4.85 0 00-.654-.065h-5.535V4.388h7.27v.033zm-3.21 7.107c-.066 0-.164 0-.295.033-.13.033-.229.066-.327.164-.066.065-.099.164-.131.262-.033.098-.033.196-.033.295 0 .098 0 .163.033.262a.527.527 0 00.13.229.713.713 0 00.263.164.908.908 0 00.294.032h2.13c.097 0 .228 0 .327-.032.098-.033.196-.066.262-.131.098-.066.163-.164.163-.262.033-.099.033-.197.033-.295v-.72h-2.849z" fill="currentColor"/><path d="M81.417 16.375h-6.485c-.36 0-.72-.033-1.08-.099-.394-.065-.754-.262-1.081-.59-.23-.229-.393-.49-.557-.785a4.287 4.287 0 01-.295-.917 4.366 4.366 0 01-.098-.917c0-.295-.033-.557-.033-.819 0-.262 0-.524.033-.786.033-.295.065-.59.13-.851.066-.295.165-.557.296-.82a1.95 1.95 0 01.59-.687 2.319 2.319 0 011.08-.491c.36-.033.688-.066 1.015-.066h4.585c0-.098 0-.163-.033-.262 0-.098-.065-.196-.13-.294-.132-.164-.263-.262-.426-.295-.23-.033-.426-.066-.623-.066h-5.764V4.192h7.533c.72 0 1.31.13 1.801.327.491.23.852.491 1.114.753.229.262.425.524.59.852.13.295.261.59.327.917.065.295.13.59.163.917.033.295.033.557.033.786v4.912c0 .328-.033.655-.098 1.015-.066.36-.23.721-.524 1.049a2.098 2.098 0 01-1.015.622c-.393 0-.72.033-1.048.033zm-6.485-7.402c-.295 0-.622.033-.95.066a1.56 1.56 0 00-.851.393c-.197.163-.36.327-.459.556-.13.23-.196.459-.262.688-.065.23-.098.491-.13.786-.033.262-.033.524-.033.753 0 .23 0 .492.032.786 0 .295.033.59.099.852.065.295.13.556.262.819.098.261.262.49.458.654.262.262.524.426.852.459a5.28 5.28 0 001.015.098h6.484c.295 0 .623-.032.95-.098a1.32 1.32 0 00.753-.459c.23-.261.36-.524.393-.786.066-.327.066-.622.066-.916V8.71c0-.23 0-.491-.033-.753s-.065-.557-.13-.819a4.106 4.106 0 00-.296-.819 2.801 2.801 0 00-.49-.72c-.197-.23-.525-.459-.95-.655-.426-.197-.95-.295-1.605-.295h-7.042v2.456h5.306c.23 0 .458.033.72.066.295.065.557.229.72.491.132.164.197.328.23.524.033.131.033.262.033.393v.426h-5.142v-.033zm3.996 4.257h-2.13c-.13 0-.228-.032-.36-.065-.163-.033-.261-.131-.36-.23a.782.782 0 01-.196-.36c-.033-.098-.033-.196-.033-.327s0-.23.033-.36a.782.782 0 01.196-.36.873.873 0 01.459-.23c.13-.033.23-.033.327-.033h3.112v.95c0 .131 0 .262-.033.36a.651.651 0 01-.262.394c-.098.065-.23.13-.36.163-.131.098-.262.098-.393.098zm-2.064-1.473c-.032 0-.098 0-.229.033-.065 0-.13.065-.196.098-.033.033-.066.065-.066.13 0 .066-.033.164-.033.263 0 .065 0 .13.033.196 0 .033.033.098.066.131a.714.714 0 00.163.098.557.557 0 00.23.033h2.128c.099 0 .197 0 .295-.033a.25.25 0 00.164-.065c.065-.033.098-.098.098-.131.033-.098.033-.164.033-.262v-.491h-2.686zm8.187-5.24c0-.23.033-.459.066-.721.032-.262.163-.491.393-.72.163-.164.327-.295.524-.393a2.15 2.15 0 01.655-.197c.229-.033.426-.065.655-.065h4.388c.623 0 1.278.065 1.9.163.622.099 1.244.393 1.801.885.295.262.557.556.72.851.164.295.328.59.426.917.099.295.164.622.197.917.032.295.032.557.032.819v7.205h-4.06v-5.994a5.63 5.63 0 00-.099-1.113 2.646 2.646 0 00-.36-.884c-.164-.262-.393-.426-.655-.557a2.855 2.855 0 00-1.015-.164h-.72c-.099 0-.165 0-.296.033-.098.033-.196.066-.294.131-.099.098-.164.197-.164.328v8.154h-4.061V6.517h-.033z" fill="currentColor"/><path d="M97.038 16.375h-4.552v-6.19c0-.393-.032-.753-.065-1.08a2.107 2.107 0 00-.328-.787 1.24 1.24 0 00-.556-.458c-.23-.098-.557-.131-.918-.131h-.72c-.066 0-.131 0-.23.033a.18.18 0 00-.163.098c-.066.065-.098.098-.098.164v8.351h-4.585V6.517c0-.23.033-.491.065-.753a1.69 1.69 0 01.459-.852c.163-.163.36-.327.622-.425.23-.099.459-.164.688-.23l.688-.098h4.421c.655 0 1.31.066 1.932.164a4.26 4.26 0 011.9.917c.327.295.589.59.785.884.197.328.328.622.426.95.099.327.164.655.197.95.032.294.032.59.032.851v7.5zm-4.06-.459h3.602V8.941c0-.262 0-.524-.033-.786-.032-.295-.098-.557-.163-.852a4.024 4.024 0 00-.394-.851 3.693 3.693 0 00-.687-.786c-.524-.426-1.081-.72-1.67-.82a11.978 11.978 0 00-1.867-.163h-4.389c-.196 0-.425.033-.622.066a2.082 2.082 0 00-.59.196 1.477 1.477 0 00-.458.328c-.197.196-.295.393-.328.59-.032.228-.065.458-.065.687v9.4h3.603V7.957c0-.164.098-.327.261-.491a1.13 1.13 0 01.394-.197c.13-.032.229-.032.327-.032h.72c.459 0 .82.065 1.114.196.295.131.557.328.753.622.23.295.36.623.426.983s.098.753.098 1.146v5.731h-.032z" fill="currentColor"/><path d="M95.761 17.095c.59 0 1.048 0 1.376-.099.327-.065.622-.229.917-.458.262-.23.458-.491.622-.819.131-.327.23-.786.23-1.408V4.42h4.06v10.807c0 .262 0 .556-.033.884a6.442 6.442 0 01-.196 1.048 3.23 3.23 0 01-.491 1.015c-.23.328-.492.622-.852.884-.524.36-1.212.623-2.096.721-.884.098-2.03.164-3.504.131v-2.817h-.033zM98.905 3.24V.654h4.061v2.587h-4.06z" fill="currentColor"/><path d="M96.645 20.14h-1.081v-3.242h.23c.589 0 1.014 0 1.31-.098.294-.065.556-.196.818-.425a2.15 2.15 0 00.557-.754c.13-.295.196-.72.196-1.31V4.16h4.552v11.037c0 .261 0 .556-.032.917-.033.36-.099.72-.23 1.08a5.41 5.41 0 01-.524 1.081 3.59 3.59 0 01-.917.95c-.556.393-1.31.655-2.194.753-.72.131-1.637.164-2.685.164zm-.623-.458a22.796 22.796 0 003.243-.13c.818-.099 1.506-.328 1.997-.689.328-.229.59-.49.786-.818.197-.328.361-.655.459-.983a5.18 5.18 0 00.196-.982c.033-.328.033-.622.033-.852V4.65h-3.602v9.694c0 .655-.066 1.146-.23 1.507a2.68 2.68 0 01-.687.916 2.51 2.51 0 01-1.016.524c-.294.066-.687.099-1.211.099v2.292h.032zm7.173-16.211h-4.552V.425h4.552v3.046zm-4.061-.458h3.602V.883h-3.602v2.13zm9.301 13.133c-.426 0-.819 0-1.179-.033-.36 0-.721-.065-1.048-.163a3.434 3.434 0 01-.917-.459c-.295-.196-.524-.491-.753-.884-.23-.426-.393-.983-.459-1.638-.065-.655-.098-1.506-.098-2.587v-1.54c0-.49.033-.949.065-1.375.066-.425.131-.818.262-1.146.131-.36.328-.655.557-.917.262-.295.557-.491.95-.655a4.963 4.963 0 011.244-.327c.459-.066.95-.131 1.441-.131.492 0 1.016-.033 1.54-.033 1.113 0 2.063.033 2.783.098.721.066 1.31.295 1.769.688.262.23.458.491.622.819.164.327.295.655.36 1.015.099.36.131.72.164 1.08.033.36.033.688.033 1.016 0 .393-.033.786-.098 1.146-.066.393-.262.72-.557.983a1.07 1.07 0 01-.524.294c-.164.033-.36.033-.557.033h-5.993c0 .164 0 .328.033.524.032.164.098.328.163.459.164.294.426.458.786.49.328.034.688.066 1.048.066h5.339v3.144h-6.976v.033zm2.62-7.401c.295 0 .458-.066.557-.23.065-.13.131-.294.131-.393 0-.163-.066-.327-.131-.458-.099-.131-.295-.262-.59-.328a2.936 2.936 0 00-.589-.065c-.23 0-.393-.033-.492-.033-.229 0-.491 0-.753.033s-.491.065-.655.164a.908.908 0 00-.393.524c-.065.229-.065.49-.033.786h2.948z" fill="currentColor"/><path d="M115.607 16.375h-7.205c-.426 0-.819 0-1.179-.033a4.17 4.17 0 01-1.114-.164 2.776 2.776 0 01-.982-.491 3.362 3.362 0 01-.819-.95c-.262-.458-.426-1.015-.491-1.703-.066-.655-.098-1.506-.098-2.587v-1.54c0-.49.032-.95.065-1.375.066-.426.131-.851.262-1.212a2.52 2.52 0 01.622-1.015 2.865 2.865 0 011.016-.72 5.101 5.101 0 011.31-.36c.458-.066.982-.132 1.473-.132.524 0 1.048-.032 1.54-.032 1.113 0 2.063.032 2.816.098.786.065 1.408.327 1.9.753.294.23.524.524.687.884.164.328.295.688.393 1.081.099.36.131.72.164 1.114.033.393.033.72.033 1.048 0 .393-.033.786-.098 1.211-.066.459-.295.82-.655 1.114a1.14 1.14 0 01-.655.327 3.56 3.56 0 01-.59.033h-5.764c0 .066 0 .164.033.23a.919.919 0 00.131.36c.131.229.327.36.589.393.328.032.655.065 1.016.065h5.567v3.603h.033zm-5.568-11.856c-.524 0-1.015 0-1.539.033-.491 0-.95.065-1.408.13a6.54 6.54 0 00-1.212.328c-.36.131-.622.328-.851.59a2.83 2.83 0 00-.524.851c-.131.328-.197.72-.262 1.114-.033.393-.066.851-.066 1.343v1.539c0 1.08.033 1.9.098 2.554.066.623.197 1.147.426 1.54a2.479 2.479 0 001.539 1.244c.328.098.655.131 1.016.164.36 0 .753.033 1.179.033h6.713v-2.686h-5.109c-.36 0-.72-.033-1.08-.065-.426-.033-.721-.262-.95-.623-.098-.13-.131-.327-.197-.524-.032-.196-.065-.393-.032-.556l.032-.23h6.223c.196 0 .36 0 .524-.032a1.1 1.1 0 00.426-.23 1.22 1.22 0 00.491-.851c.065-.393.098-.753.098-1.114 0-.294 0-.655-.033-1.015-.032-.36-.065-.688-.163-1.048a3.985 3.985 0 00-.361-.982 1.892 1.892 0 00-.589-.754c-.393-.36-.95-.556-1.638-.622-.72-.098-1.637-.13-2.751-.13zm1.016 4.454h-3.21l-.033-.196a3.51 3.51 0 01.033-.852.923.923 0 01.491-.655c.197-.098.426-.164.754-.196.294-.033.556-.033.786-.033.098 0 .262 0 .524.033.229 0 .425.032.622.065.393.098.622.23.753.426.131.196.197.393.197.59a.926.926 0 01-.131.49c-.164.23-.426.328-.786.328zm-2.817-.458h2.784c.196 0 .327-.033.327-.099a.526.526 0 00.099-.294.55.55 0 00-.099-.328c-.032-.065-.131-.164-.458-.23-.131-.032-.328-.032-.557-.065-.229 0-.393-.032-.491-.032-.229 0-.459 0-.753.032-.23.033-.426.066-.557.131a.638.638 0 00-.295.36c.033.164 0 .328 0 .525zM115.116.95a.965.965 0 01-.983.982.965.965 0 01-.982-.982c0-.557.426-.95 1.015-.95a.95.95 0 01.95.95zm-1.736 0c0 .425.328.786.753.786.426 0 .721-.328.721-.754 0-.425-.328-.785-.753-.785-.393 0-.721.36-.721.753zm.59.524h-.23V.49c.099 0 .197-.032.361-.032.196 0 .262.032.327.065.066.033.098.098.098.197 0 .13-.098.196-.196.229.098.032.131.098.164.229.032.131.065.196.065.23h-.229c-.033-.034-.033-.132-.066-.23-.032-.098-.065-.131-.196-.131h-.098v.426zm0-.557h.098c.131 0 .229-.033.229-.131s-.065-.131-.196-.131h-.131v.262z" fill="currentColor"/></svg>