<svg width="116" height="20" viewBox="0 0 116 20" fill="none" xmlns="http://www.w3.org/2000/svg"><path d="M4.29 19.772H.229V6.6c0-.325.032-.65.13-.976.099-.293.295-.585.623-.813a1.99 1.99 0 01.753-.358c.262-.032.524-.065.786-.065H7.63c.164 0 .393 0 .655.033.262.032.524.065.819.163.295.097.59.195.884.357.295.163.557.39.819.65.262.293.491.651.655 1.009.164.358.262.748.36 1.138.066.39.131.78.131 1.138.033.358.033.683.033.976 0 .26 0 .553-.033.943 0 .39-.033.78-.098 1.203-.066.423-.131.846-.262 1.268-.131.423-.295.814-.492 1.106-.262.39-.524.683-.851.878-.327.228-.655.358-.982.488-.36.098-.688.163-1.016.195-.327.033-.655.033-.95.033H4.29v3.805zm1.8-6.862c.46 0 .787-.098 1.016-.293.23-.195.393-.39.491-.585.099-.228.197-.488.197-.813.033-.293.033-.65.033-1.008 0-.326 0-.65-.033-.911-.033-.293-.066-.52-.164-.78-.098-.228-.196-.423-.327-.553a1.665 1.665 0 00-.426-.293c-.131-.065-.295-.098-.426-.13-.131 0-.23-.033-.295-.033h-1.44a.556.556 0 00-.164.065c-.066.033-.131.065-.164.098-.098.098-.131.228-.131.39v4.846H6.09z" fill="#fff"/><path d="M4.552 20H0V6.602c0-.358.033-.716.131-1.041.098-.358.328-.683.688-.943.294-.228.59-.358.884-.39.262-.033.557-.065.819-.065H7.63c.196 0 .425 0 .687.032.262.033.557.065.852.163.295.097.622.227.917.39.328.163.622.423.884.715.295.326.524.683.688 1.074.164.39.295.78.36 1.203.066.39.131.813.164 1.17.033.39.033.716.033.976s0 .553-.033.976c0 .39-.066.813-.098 1.236-.066.422-.164.878-.262 1.3-.131.456-.295.846-.524 1.171a2.827 2.827 0 01-.917.943c-.328.228-.688.39-1.048.488-.36.098-.72.163-1.048.195-.328.033-.655.033-.95.033H4.552V20zM.46 19.512H4.06v-3.707h3.242c.295 0 .59 0 .917-.033a5.25 5.25 0 00.983-.195c.327-.097.622-.26.95-.455.294-.195.556-.455.785-.813.197-.293.36-.65.459-1.073.131-.423.197-.813.262-1.236.066-.423.098-.813.098-1.203 0-.39.033-.716.033-.943 0-.26 0-.586-.033-.943a14.373 14.373 0 00-.13-1.106 7.069 7.069 0 00-.328-1.106c-.164-.358-.36-.683-.622-.943a3.306 3.306 0 00-.754-.618c-.262-.162-.557-.26-.819-.358-.262-.065-.524-.13-.786-.13-.229-.032-.458-.032-.622-.032H2.522c-.262 0-.491.032-.753.065-.23.032-.459.13-.655.293-.263.227-.459.455-.525.715a2.787 2.787 0 00-.13.91v12.911zm5.633-6.374H4.06V8.065c0-.228.066-.39.197-.553.032-.065.13-.097.229-.162.098-.065.196-.065.262-.065h1.474c.065 0 .163 0 .294.032.164.033.328.065.491.13.164.065.328.195.492.325.163.163.295.358.393.65.098.26.13.521.163.846.033.293.033.586.033.943 0 .39 0 .748-.033 1.041-.032.325-.098.618-.229.878-.098.228-.295.455-.556.683-.295.195-.688.325-1.18.325zm-1.54-.455h1.54c.393 0 .687-.098.851-.26.197-.195.36-.358.459-.52.098-.196.163-.456.196-.716.033-.293.033-.618.033-1.008 0-.325 0-.65-.033-.91a4.636 4.636 0 00-.131-.716 1.197 1.197 0 00-.262-.455c-.131-.098-.23-.196-.36-.26a.736.736 0 00-.328-.098c-.13 0-.196-.033-.262-.033h-1.44s-.034 0-.099.033c-.066.065-.098.065-.098.065-.066.065-.066.13-.066.228v4.65zM17.064 4.39v5.788c0 .553.033.976.098 1.301.066.293.164.553.295.716.098.162.23.325.393.423.164.097.295.162.458.195.164.032.295.065.459.097.164 0 .295.033.426.033h.753c.327 0 .557-.065.72-.228.099-.13.164-.227.197-.358 0-.13.033-.227.033-.357V4.39h4.06v9.268c0 .325-.032.65-.098.976-.065.325-.262.618-.556.878-.262.26-.59.39-.95.455s-.622.065-.852.065h-5.043c-.786 0-1.441-.097-1.932-.293-.459-.227-.852-.455-1.114-.715a3.398 3.398 0 01-1.113-1.854 11.368 11.368 0 01-.262-2.439V4.39h4.028z" fill="#fff"/><path d="M22.466 16.26h-5.01c-.82 0-1.507-.098-1.998-.326-.524-.227-.917-.455-1.212-.715a3.652 3.652 0 01-1.18-1.984 10.293 10.293 0 01-.294-2.504V4.162h4.52v6.016c0 .52.032.943.098 1.236.065.26.164.488.262.65.098.163.196.26.327.326.131.097.262.13.393.195.131.032.295.065.426.065s.262.032.393.032h.753c.262 0 .426-.065.524-.162.066-.065.131-.163.131-.228 0-.097.033-.227.033-.325V4.162h4.52v9.496c0 .358-.033.716-.131 1.04a1.856 1.856 0 01-.655.976 1.89 1.89 0 01-1.048.52c-.328.033-.623.066-.852.066zM13.231 4.617v6.114c0 .846.098 1.659.262 2.374.163.683.524 1.301 1.048 1.756a4.1 4.1 0 001.08.65c.459.196 1.081.293 1.834.293h4.978c.197 0 .492-.032.82-.065.294-.032.556-.162.818-.39.262-.228.426-.488.491-.748.066-.293.098-.585.098-.91V4.617h-3.602v7.35c0 .13 0 .26-.033.39a.902.902 0 01-.262.488c-.196.195-.491.325-.884.325h-.753c-.131 0-.295 0-.426-.032-.164 0-.328-.033-.491-.098-.164-.032-.328-.13-.524-.227a1.325 1.325 0 01-.459-.488c-.13-.195-.23-.455-.295-.78a6.755 6.755 0 01-.13-1.334V4.617h-3.57zM30.23 4.39v5.788c0 .553.032.976.098 1.301.065.293.163.553.294.716.099.162.23.325.393.423.164.097.295.162.459.195.164.032.295.065.458.097.164 0 .295.033.426.033h.753c.328 0 .557-.065.72-.228.1-.13.165-.227.197-.358 0-.13.033-.227.033-.357V4.39h4.061v9.268c0 .325-.033.65-.13.976-.066.325-.263.618-.558.878-.262.26-.59.39-.95.455s-.622.065-.85.065h-5.012c-.786 0-1.44-.097-1.932-.293-.491-.195-.884-.422-1.146-.682a3.399 3.399 0 01-1.114-1.854c-.196-.748-.262-1.561-.262-2.44V4.39h4.061z" fill="#fff"/><path d="M35.632 16.26h-5.01c-.82 0-1.507-.098-1.998-.326-.524-.227-.917-.455-1.212-.715a3.652 3.652 0 01-1.179-1.984c-.196-.748-.262-1.593-.262-2.504V4.162h4.487v6.016c0 .52.033.943.098 1.236.066.26.164.488.262.65.098.13.197.26.328.326.13.097.262.13.393.195.13.032.294.065.425.065s.262.032.393.032h.754c.262 0 .425-.065.524-.162.065-.065.13-.163.13-.228 0-.13.033-.227.033-.325V4.162h4.52v9.496c0 .358-.033.683-.131 1.04a1.855 1.855 0 01-.655.976 1.89 1.89 0 01-1.048.52c-.328.033-.622.066-.852.066zM26.397 4.617v6.114c0 .846.098 1.659.262 2.374.164.683.524 1.268 1.048 1.756a4.1 4.1 0 001.08.65c.46.196 1.081.293 1.835.293H35.6c.196 0 .49-.032.818-.065.295-.032.557-.162.82-.39.261-.228.425-.488.49-.748.066-.293.099-.618.099-.91V4.617h-3.603v7.35c0 .13 0 .228-.033.39a.9.9 0 01-.262.488c-.196.195-.49.325-.884.325h-.753c-.131 0-.295 0-.426-.032-.164 0-.327-.033-.491-.098-.164-.032-.328-.13-.524-.227a1.325 1.325 0 01-.459-.488c-.13-.195-.229-.455-.294-.78a6.488 6.488 0 01-.131-1.334V4.617h-3.57zM39.365 9.202c0-.292.032-.585.065-.91a6.05 6.05 0 01.197-1.008c.098-.358.229-.683.425-.976.197-.325.426-.618.72-.878a3.57 3.57 0 011.016-.585c.36-.13.72-.228 1.114-.293a5.99 5.99 0 011.048-.098h.917l2.685.065-.065 3.025-1.409-.033c-.393 0-.786.033-1.146.13-.36.098-.655.326-.95.683-.229.325-.393.683-.458 1.106-.066.39-.098.78-.131 1.106l-.131 5.56-4.061-.162.164-6.732z" fill="#fff"/><path d="M43.492 16.26l-4.52-.097.164-6.96c0-.292.033-.585.066-.91a5.83 5.83 0 01.196-1.04c.098-.358.262-.716.426-1.041a3.43 3.43 0 01.786-.91c.327-.26.688-.488 1.08-.618.36-.13.754-.26 1.147-.326a6.731 6.731 0 011.113-.097h.95l2.947.065-.065 3.48-1.736-.033c-.327 0-.655.032-.982.098-.295.065-.557.26-.819.585-.23.293-.36.65-.426 1.008-.065.39-.098.748-.098 1.073l-.23 5.724zm-4.061-.552l3.602.065.131-5.333c0-.358.033-.748.131-1.139.066-.422.262-.845.524-1.203.295-.39.655-.65 1.081-.748.36-.097.786-.13 1.212-.13l1.179.033.065-2.57-2.456-.065h-.917c-.327 0-.655.033-1.015.098-.36.065-.72.163-1.048.293-.328.13-.655.325-.95.553-.295.227-.524.52-.688.813a5.145 5.145 0 00-.59 1.919c-.032.324-.032.617-.065.91l-.196 6.504z" fill="#fff"/><path d="M47.912 12.91h5.994c.098 0 .163-.032.261-.097.066-.033.099-.13.099-.228a.247.247 0 00-.066-.163c-.033-.032-.098-.065-.13-.097-.066-.033-.197-.098-.361-.13-.164-.065-.459-.163-.884-.325l-2.358-.813a7.284 7.284 0 01-1.343-.618 2.453 2.453 0 01-.917-.91 2.861 2.861 0 01-.328-.976 5.46 5.46 0 01-.098-.976c0-.358.033-.716.099-1.073a2.94 2.94 0 01.392-1.008c.295-.456.656-.78 1.049-.911.425-.13.916-.195 1.506-.195h7.336v2.992H51.94c-.098 0-.163 0-.261.032-.066 0-.099.033-.132.065-.032.033-.065.065-.065.13 0 .098.033.163.066.163.032.033.098.065.163.098.131.032.23.065.262.097.066.033.099.033.131.065.033.033.099.033.131.065.066.033.131.065.262.098l2.784.975c.59.196 1.08.423 1.507.65.425.229.753.521 1.015.944.262.39.425.813.491 1.236.066.422.098.748.098 1.008 0 .423-.065.878-.164 1.333-.13.455-.36.846-.753 1.17-.294.261-.59.391-.917.456a4.587 4.587 0 01-.884.098h-7.86V12.91h.098z" fill="#fff"/><path d="M55.772 16.26h-8.09v-3.578h6.223c.033 0 .066 0 .099-.032v-.033c-.033-.032-.066-.065-.099-.065-.032 0-.098-.065-.294-.097-.164-.065-.459-.163-.917-.325l-2.358-.813c-.524-.196-.983-.39-1.409-.65a2.647 2.647 0 01-.982-1.009 3.26 3.26 0 01-.36-1.04 5.867 5.867 0 01-.099-1.041c0-.39.033-.748.131-1.138.066-.39.23-.748.426-1.074.328-.52.72-.845 1.18-1.008.425-.13.949-.195 1.571-.195h7.598V7.61h-6.517c-.033 0-.066 0-.131.033.033 0 .033.032.065.032.099.033.197.065.262.098a.555.555 0 00.164.065c.033.032.066.032.131.065.066.032.131.065.262.098l2.784.975c.59.195 1.113.423 1.54.65.458.228.818.586 1.113 1.041.294.423.458.878.524 1.333.065.423.098.781.098 1.041 0 .456-.066.91-.197 1.366-.13.488-.393.943-.818 1.268-.328.26-.655.456-1.016.52-.262.033-.59.066-.884.066zm-7.63-.456h7.63c.262 0 .557-.032.852-.097.262-.065.556-.195.818-.423.328-.293.557-.65.655-1.04a5.61 5.61 0 00.164-1.269c0-.227-.033-.585-.065-.976a3.018 3.018 0 00-.426-1.138 2.24 2.24 0 00-.95-.878c-.426-.227-.917-.422-1.474-.618l-2.783-.975a1.53 1.53 0 01-.295-.098c-.066-.032-.131-.065-.164-.065-.033-.032-.065-.032-.13-.065-.066-.032-.132-.065-.263-.097-.098-.033-.164-.065-.23-.098a.463.463 0 01-.163-.358c0-.195.098-.292.164-.325l.196-.097c.099-.033.23-.066.328-.033h5.96V4.617H50.86c-.557 0-1.048.065-1.441.196-.36.097-.655.39-.917.813a3.112 3.112 0 00-.36.91 5.597 5.597 0 00-.099 1.04c0 .293.033.619.098.944.066.358.164.65.295.91.197.326.459.618.819.813.393.228.819.423 1.31.618l2.358.813c.426.163.72.26.884.325.197.066.328.098.393.163.066.033.098.065.164.13a.432.432 0 01.13.325.45.45 0 01-.228.423.69.69 0 01-.36.13H48.14v2.634zM63.567 19.772h-4.061V6.6c0-.325.033-.65.13-.976.1-.292.296-.585.623-.845a1.99 1.99 0 01.753-.358c.262-.033.524-.065.786-.065h5.11c.163 0 .392 0 .654.032.262.033.524.066.82.163.294.098.589.195.883.358.295.162.557.39.82.65.261.293.49.65.654 1.008.164.358.262.748.36 1.139.066.39.131.78.131 1.138.033.357.033.683.033.975 0 .26 0 .553-.033.944 0 .39-.032.78-.098 1.203-.065.422-.13.845-.262 1.268-.13.423-.295.813-.491 1.106-.262.39-.524.683-.852.878-.327.227-.655.357-.982.488-.36.097-.688.162-1.015.195-.328.032-.655.032-.95.032h-3.013v3.838zm1.801-6.862c.459 0 .786-.098 1.015-.293.23-.195.393-.39.492-.585.098-.228.196-.488.196-.813.033-.293.033-.65.033-1.008 0-.326 0-.65-.033-.91-.033-.294-.065-.521-.164-.781-.098-.228-.196-.423-.327-.553a1.666 1.666 0 00-.426-.293c-.13-.065-.295-.098-.426-.13-.13 0-.229-.033-.294-.033h-1.441c-.033 0-.099.033-.164.065a.718.718 0 00-.164.098c-.098.098-.13.228-.13.39v4.846h1.833z" fill="#fff"/><path d="M63.797 20h-4.52V6.6c0-.358.033-.715.131-1.04.099-.358.328-.683.688-.944.295-.227.59-.357.884-.39.262-.032.557-.065.82-.065h5.108c.197 0 .426 0 .688.033.262.032.557.065.851.162.295.098.623.228.917.39.328.163.623.423.885.716.294.325.524.683.687 1.073.164.39.295.78.36 1.203.066.39.132.78.164 1.171.033.39.033.716.033.976 0 .227 0 .553-.033.975 0 .39-.065.813-.098 1.236-.065.423-.164.878-.262 1.3-.13.456-.295.846-.524 1.172-.262.422-.59.715-.917.943-.327.227-.688.39-1.048.488-.36.097-.72.162-1.08.195-.328.032-.656.032-.95.032h-2.784V20zm-4.061-.488h3.602v-3.708h3.243c.294 0 .59 0 .917-.032a5.25 5.25 0 00.982-.195c.328-.098.622-.26.95-.456.295-.195.557-.455.786-.813.196-.292.36-.65.458-1.073A8.31 8.31 0 0070.936 12c.066-.39.099-.813.099-1.203 0-.39.032-.715.032-.943 0-.26 0-.585-.032-.943-.033-.358-.066-.715-.131-1.106a7.069 7.069 0 00-.328-1.105c-.164-.358-.36-.683-.622-.943a3.303 3.303 0 00-.753-.618 5.723 5.723 0 00-.82-.358c-.261-.065-.523-.13-.785-.13-.23-.033-.459-.033-.622-.033h-5.11c-.261 0-.49.033-.753.065-.229.033-.458.13-.655.293-.262.228-.458.455-.524.716a2.789 2.789 0 00-.13.91v12.91h-.066zm5.633-6.374h-2.03V8.065c0-.228.065-.39.196-.553.033-.065.13-.098.23-.163.13-.065.196-.065.294-.065h1.44c.066 0 .165 0 .296.033.163.032.327.065.49.13.165.065.328.195.492.325.164.162.295.39.393.65.098.26.131.52.164.813.033.293.033.586.033.943 0 .39 0 .748-.033 1.041-.033.325-.098.618-.23.878-.098.228-.294.455-.556.683-.295.228-.688.358-1.18.358zm-1.572-.456h1.54c.392 0 .687-.097.85-.26.23-.195.36-.357.46-.52.097-.195.163-.455.196-.715.032-.293.032-.618.032-1.009 0-.325 0-.617-.032-.91a4.641 4.641 0 00-.131-.716 1.198 1.198 0 00-.262-.455c-.131-.097-.23-.195-.36-.26a.75.75 0 00-.36-.098c-.132 0-.197-.032-.263-.032h-1.44s-.034 0-.1.032c-.065.033-.097.065-.097.065-.066.065-.066.13-.066.228v4.65h.033zM80.075 4.39c.687 0 1.244.097 1.703.325.458.227.785.455 1.015.683.229.227.393.487.556.78.132.293.263.585.328.846.066.292.131.585.131.845.033.293.033.553.033.78v4.879c0 .292-.033.618-.098.943a1.855 1.855 0 01-.459.91 1.57 1.57 0 01-.884.52 5.036 5.036 0 01-.983.098h-6.484c-.36 0-.688-.032-1.048-.097a1.63 1.63 0 01-.95-.52 2.78 2.78 0 01-.491-.716c-.131-.293-.23-.553-.262-.878a4.01 4.01 0 01-.099-.878c0-.293-.032-.553-.032-.78 0-.26 0-.521.032-.781.033-.26.066-.553.132-.813.065-.26.163-.52.294-.748.131-.228.295-.423.524-.618.295-.26.623-.39.95-.455.328-.033.655-.065.983-.065h4.814v-.163c0-.098 0-.228-.033-.358a1.387 1.387 0 00-.164-.422c-.163-.228-.36-.358-.59-.39-.228-.033-.458-.066-.654-.066h-5.535V4.357h7.27v.032zm-3.21 7.056c-.066 0-.164 0-.295.033-.13.032-.229.065-.327.163-.066.065-.099.162-.131.26-.033.097-.033.195-.033.292 0 .098 0 .163.033.26a.523.523 0 00.13.228c.066.065.164.13.263.163a.913.913 0 00.294.032h2.13c.097 0 .228 0 .327-.032.098-.033.196-.065.262-.13.098-.065.163-.163.163-.26.033-.098.033-.196.033-.293v-.716h-2.849z" fill="#fff"/><path d="M81.418 16.26h-6.485c-.36 0-.72-.033-1.08-.098-.394-.065-.754-.26-1.081-.585-.23-.228-.393-.488-.557-.78a4.235 4.235 0 01-.295-.911 4.305 4.305 0 01-.098-.91c0-.294-.033-.554-.033-.814 0-.26 0-.52.033-.78.033-.293.065-.586.13-.846.066-.293.165-.553.296-.813a1.94 1.94 0 01.59-.683c.327-.26.687-.423 1.08-.488.36-.032.688-.065 1.015-.065h4.585c0-.097 0-.162-.033-.26 0-.097-.065-.195-.13-.293-.132-.162-.263-.26-.426-.292-.23-.033-.426-.065-.623-.065h-5.764V4.162h7.533c.72 0 1.31.13 1.801.325.491.228.852.488 1.114.748.229.26.425.52.59.846.13.292.261.585.327.91.065.293.13.586.163.911.033.293.033.553.033.78v4.878c0 .326-.033.65-.098 1.009-.066.357-.23.715-.524 1.04a2.1 2.1 0 01-1.015.618c-.393 0-.72.033-1.048.033zm-6.485-7.35c-.295 0-.622.033-.95.065-.294.033-.59.163-.851.39-.197.163-.36.326-.459.553-.13.228-.196.456-.262.683a4.846 4.846 0 00-.13.78c-.033.26-.033.521-.033.749 0 .227 0 .487.032.78 0 .293.033.585.099.846.065.292.13.553.262.813.098.26.262.487.458.65.262.26.524.423.852.455a5.37 5.37 0 001.015.098h6.484c.295 0 .623-.033.95-.098.295-.065.524-.195.753-.455.23-.26.36-.52.393-.78.066-.326.066-.618.066-.911V8.65c0-.228 0-.488-.033-.748s-.065-.553-.13-.813a4.059 4.059 0 00-.296-.813 2.781 2.781 0 00-.49-.716c-.197-.227-.525-.455-.95-.65-.426-.195-.95-.293-1.605-.293h-7.042v2.44h5.306c.23 0 .458.032.72.064.295.066.557.228.72.488.132.163.197.325.23.52.033.13.033.26.033.39v.424h-5.142V8.91zm3.996 4.228h-2.13c-.13 0-.228-.033-.36-.065-.163-.033-.261-.13-.36-.228a.775.775 0 01-.196-.358c-.033-.097-.033-.195-.033-.325s0-.228.033-.358a.775.775 0 01.196-.357.875.875 0 01.459-.228c.13-.032.23-.032.327-.032h3.112v.943c0 .13 0 .26-.033.357a.647.647 0 01-.262.39c-.098.066-.23.13-.36.163-.131.098-.262.098-.393.098zm-2.064-1.464c-.032 0-.098 0-.229.033-.065 0-.13.065-.196.097-.033.033-.066.066-.066.13 0 .066-.033.163-.033.26 0 .066 0 .13.033.196 0 .032.033.097.066.13.032.032.098.065.163.097.066.033.164.033.23.033h2.128c.099 0 .197 0 .295-.033a.25.25 0 00.164-.065c.065-.032.098-.097.098-.13.033-.097.033-.162.033-.26v-.488h-2.686zM85.05 6.47c0-.227.034-.455.066-.715.033-.26.164-.488.393-.715.164-.163.328-.293.524-.39.197-.098.426-.163.655-.196.23-.032.426-.065.655-.065h4.389c.622 0 1.277.065 1.9.163.621.098 1.244.39 1.8.878.295.26.557.553.721.846.164.292.328.585.426.91.098.293.164.618.196.91.033.293.033.554.033.814v7.154h-4.061v-5.951c0-.423-.033-.78-.098-1.106a2.618 2.618 0 00-.36-.878c-.164-.26-.394-.423-.656-.553a2.874 2.874 0 00-1.015-.162h-.72c-.099 0-.164 0-.295.032-.098.033-.197.065-.295.13-.098.098-.164.196-.164.326v8.097h-4.06V6.471h-.033z" fill="#fff"/><path d="M97.038 16.26h-4.552v-6.146c0-.39-.033-.748-.066-1.073a2.085 2.085 0 00-.327-.78 1.238 1.238 0 00-.557-.456c-.23-.098-.557-.13-.917-.13h-.72c-.066 0-.132 0-.23.032a.18.18 0 00-.163.098c-.066.065-.099.098-.099.163v8.292h-4.585V6.472c0-.228.033-.488.066-.748a1.67 1.67 0 01.458-.846c.164-.163.36-.325.623-.423.229-.097.458-.162.687-.227l.688-.098h4.421c.655 0 1.31.065 1.933.163.655.13 1.31.422 1.899.91.328.293.59.586.786.878.197.326.328.618.426.943.098.326.163.65.196.944.033.292.033.585.033.845v7.447zm-4.061-.455h3.602V8.878c0-.26 0-.52-.032-.78-.033-.293-.099-.553-.164-.846a3.973 3.973 0 00-.393-.845 3.674 3.674 0 00-.688-.78c-.524-.424-1.08-.716-1.67-.814a12.06 12.06 0 00-1.867-.163h-4.388a4.04 4.04 0 00-.623.065 2.092 2.092 0 00-.589.196 1.477 1.477 0 00-.459.325c-.196.195-.294.39-.327.585-.033.228-.066.455-.066.683v9.334h3.603V8.26v-.357c0-.163.098-.326.262-.488a1.11 1.11 0 01.393-.195c.131-.033.23-.033.328-.033h.72c.459 0 .819.065 1.114.195.294.13.556.325.753.618.229.293.36.618.425.976.066.357.099.748.099 1.138v5.691h-.033z" fill="#fff"/><path d="M95.761 16.975c.59 0 1.048 0 1.376-.098.327-.065.622-.227.917-.455a2.57 2.57 0 00.622-.813c.131-.325.23-.78.23-1.398V4.39h4.06V15.12c0 .26 0 .553-.032.878a6.472 6.472 0 01-.197 1.041 3.199 3.199 0 01-.491 1.008 3.588 3.588 0 01-.852.878c-.524.358-1.211.618-2.096.716-.884.097-2.03.162-3.504.13v-2.797h-.033zm3.144-13.756V.649h4.061v2.57h-4.06z" fill="#fff"/><path d="M96.645 20h-1.081v-3.22h.23c.589 0 1.015 0 1.31-.097.294-.065.556-.195.818-.423a2.14 2.14 0 00.557-.748c.13-.293.196-.716.196-1.3V4.13h4.553v10.96c0 .26 0 .552-.033.91a4.206 4.206 0 01-.229 1.073 5.41 5.41 0 01-.524 1.073c-.23.358-.557.683-.917.943-.557.39-1.31.65-2.195.748-.72.13-1.637.163-2.685.163zm-.622-.456a22.937 22.937 0 003.242-.13c.819-.097 1.506-.325 1.998-.683.327-.227.589-.487.786-.813.196-.325.36-.65.458-.975.098-.325.164-.65.197-.976.032-.325.032-.618.032-.845V4.618h-3.602v9.626c0 .65-.066 1.138-.23 1.495-.163.358-.392.65-.687.911-.295.26-.655.423-1.015.52-.295.065-.688.098-1.212.098v2.276h.033zm7.172-16.097h-4.552V.422h4.552v3.025zm-4.061-.456h3.602V.878h-3.602V2.99zM108.434 16.033c-.425 0-.818 0-1.179-.033-.36 0-.72-.065-1.048-.162a3.456 3.456 0 01-.917-.455c-.294-.196-.524-.488-.753-.878-.229-.423-.393-.976-.458-1.627-.066-.65-.099-1.495-.099-2.569V8.781c0-.488.033-.943.066-1.366.065-.423.131-.813.262-1.138a2.83 2.83 0 01.557-.91c.262-.293.556-.489.949-.651.393-.163.786-.26 1.245-.325.458-.065.95-.13 1.441-.13.491 0 1.015-.033 1.539-.033 1.114 0 2.063.033 2.784.098.72.065 1.31.292 1.768.683.262.227.459.487.623.813.163.325.294.65.36 1.008.098.357.131.715.164 1.073.032.358.032.683.032 1.008 0 .39-.032.78-.098 1.138-.065.39-.262.716-.557.976-.163.162-.36.26-.524.293-.163.032-.36.032-.556.032h-5.994c0 .163 0 .325.033.52.033.163.098.325.164.456.164.292.426.455.786.487.327.033.688.066 1.048.066h5.338V16h-6.976v.033zm2.62-7.35c.295 0 .459-.065.557-.227.066-.13.131-.293.131-.39 0-.163-.065-.326-.131-.456-.098-.13-.295-.26-.589-.325a2.967 2.967 0 00-.59-.065c-.229 0-.393-.033-.491-.033-.229 0-.491 0-.753.033-.262.032-.492.065-.655.163a.894.894 0 00-.393.52c-.066.227-.066.488-.033.78h2.947z" fill="#fff"/><path d="M115.607 16.26h-7.205c-.426 0-.819 0-1.179-.033-.393 0-.753-.065-1.114-.162a2.785 2.785 0 01-.982-.488 3.348 3.348 0 01-.819-.943c-.262-.456-.426-1.008-.491-1.691-.066-.65-.098-1.496-.098-2.57V8.845c0-.488.032-.943.065-1.366.066-.423.131-.845.262-1.203.131-.39.328-.716.622-1.008a2.865 2.865 0 011.016-.716 5.13 5.13 0 011.31-.357c.458-.065.982-.13 1.473-.13.524 0 1.048-.033 1.54-.033 1.113 0 2.063.032 2.816.098.786.065 1.408.325 1.9.748.294.227.524.52.687.878.164.325.295.683.393 1.073.099.357.131.715.164 1.105s.033.716.033 1.041c0 .39-.033.78-.098 1.203-.066.456-.295.813-.655 1.106a1.144 1.144 0 01-.655.325c-.197.033-.393.033-.59.033h-5.764c0 .065 0 .162.033.227.033.163.065.26.131.358a.752.752 0 00.589.39c.328.033.655.065 1.016.065h5.567v3.578h.033zm-5.568-11.773c-.524 0-1.015 0-1.539.033-.491 0-.95.065-1.408.13a6.577 6.577 0 00-1.212.325c-.36.13-.622.325-.851.585-.23.26-.393.52-.524.846-.131.325-.197.715-.262 1.106-.033.39-.066.845-.066 1.333v1.528c0 1.074.033 1.887.098 2.537.066.618.197 1.138.426 1.528.197.358.426.618.688.814.262.195.524.325.851.422.328.098.655.13 1.016.163.36 0 .753.032 1.179.032h6.713v-2.666h-5.109c-.36 0-.72-.033-1.08-.065-.426-.033-.721-.26-.95-.618-.098-.13-.131-.325-.197-.52-.032-.196-.065-.39-.032-.553l.032-.228h6.223c.196 0 .36 0 .524-.032.131-.033.262-.098.426-.228.294-.228.458-.52.491-.846.065-.39.098-.748.098-1.105 0-.293 0-.65-.033-1.009-.032-.357-.065-.682-.163-1.04a3.94 3.94 0 00-.361-.976 1.881 1.881 0 00-.589-.748c-.393-.357-.95-.553-1.638-.618-.72-.097-1.637-.13-2.751-.13zm1.016 4.423h-3.21l-.033-.195a3.46 3.46 0 01.033-.846.918.918 0 01.491-.65c.197-.098.426-.163.754-.195.294-.033.556-.033.786-.033.098 0 .262 0 .524.033.229 0 .425.032.622.065.393.097.622.228.753.423.131.195.197.39.197.585a.915.915 0 01-.131.488c-.164.227-.426.325-.786.325zm-2.817-.455h2.784c.196 0 .327-.033.327-.098a.52.52 0 00.099-.292.544.544 0 00-.099-.326c-.032-.065-.131-.162-.458-.227-.131-.033-.328-.033-.557-.065-.229 0-.393-.033-.491-.033-.229 0-.459 0-.753.033-.23.032-.426.065-.557.13a.634.634 0 00-.295.357c.033.163 0 .326 0 .52z" fill="#fff"/></svg>