<svg width="16" height="16" viewBox="0 0 16 16" fill="none" xmlns="http://www.w3.org/2000/svg"><path d="M14.155 15.994h-.105C1.962 15.3.246 5.1.006 1.987A1.846 1.846 0 011.704 0h3.39a1.23 1.23 0 011.143.775l.935 2.3a1.23 1.23 0 01-.27 1.33l-1.31 1.322a5.764 5.764 0 004.662 4.675L11.59 9.08a1.23 1.23 0 011.335-.252l2.32.928A1.23 1.23 0 0116 10.901v3.248a1.846 1.846 0 01-1.845 1.845zM1.85 1.23a.615.615 0 00-.615.615v.05c.283 3.641 2.098 12.254 12.882 12.869a.615.615 0 00.652-.579v-3.284l-2.32-.93-1.765 1.754-.295-.037c-5.352-.67-6.078-6.022-6.078-6.078l-.037-.295 1.747-1.766L5.1 1.23H1.851z" fill="currentColor"/></svg>