<svg width="20" height="20" viewBox="0 0 20 20" fill="none" xmlns="http://www.w3.org/2000/svg">
<path d="M18.4782 16.1363V10.4348H19.3478C19.708 10.4348 20 10.1428 20 9.78258C20 9.42242 19.708 9.13039 19.3478 9.13039H17.1739V1.95652C17.1739 0.877695 16.2962 0 15.2174 0H4.78262C3.70379 0 2.82609 0.877695 2.82609 1.95652V9.13043H0.652187C0.291992 9.13043 0 9.42242 0 9.78262C0 10.1428 0.291992 10.4348 0.652187 10.4348H1.52176V16.1363C0.651563 16.3346 0 17.1141 0 18.0435V19.3478C0 19.708 0.291992 20 0.652187 20H19.3479C19.708 20 20 19.708 20 19.3478V18.0435C20 17.1141 19.3484 16.3346 18.4782 16.1363ZM17.1739 10.4348V16.087H15.8696V10.4348C16.3416 10.4348 16.7019 10.4348 17.1739 10.4348ZM4.13043 1.95652C4.13043 1.59691 4.42301 1.30434 4.78262 1.30434H15.2174C15.577 1.30434 15.8696 1.59691 15.8696 1.95652V9.13043H14.5652V3.26086C14.5652 2.9007 14.2732 2.60867 13.913 2.60867H6.08695C5.7268 2.60867 5.43477 2.90066 5.43477 3.26086V9.13043H4.13043V1.95652ZM10.6522 9.13043V3.91305H13.2609V9.13043H10.6522ZM11.9565 10.4348V16.087H10.6522V10.4348H11.9565ZM13.2609 10.4348C13.7329 10.4348 14.0932 10.4348 14.5652 10.4348V16.087H13.2609V10.4348ZM6.73914 9.13043V3.91305H9.34785V9.13043H6.73914ZM9.34781 10.4348V16.087H8.04348V10.4348H9.34781ZM6.73914 10.4348V16.087H5.43477V10.4348C5.9068 10.4348 6.26715 10.4348 6.73914 10.4348ZM2.82609 10.4348C3.29809 10.4348 3.65844 10.4348 4.13043 10.4348V16.087H2.82609V10.4348ZM18.6957 18.6957H1.30434V18.0435C1.30434 17.6839 1.59691 17.3913 1.95652 17.3913H18.0435C18.4031 17.3913 18.6957 17.6839 18.6957 18.0435V18.6957V18.6957Z" fill="#6B6B6B"/>
</svg>
