<svg width="23" height="19" viewBox="0 0 23 19" fill="none" xmlns="http://www.w3.org/2000/svg">
<path d="M19.1667 0.5C17.4723 0.5 16.1 1.8425 16.1 3.5H14.5667V5H19.1667V3.5H17.6333C17.6333 2.60675 18.2536 2 19.1667 2C20.0798 2 20.7 2.60675 20.7 3.5V8H0V9.5H0.9108L2.0838 15.1955V15.2188C2.17284 15.6012 2.36051 15.9549 2.62893 16.2462C2.89734 16.5375 3.23755 16.7568 3.61713 16.883L3.06667 18.5H4.6L5.10293 17H17.8971L18.4 18.5H19.9333L19.3821 16.883C20.1848 16.643 20.8081 16.013 20.9875 15.2188V15.1955L22.09 9.5H23V8H22.2333V3.5C22.2333 1.8425 20.861 0.5 19.1667 0.5ZM2.4679 9.5H20.5559L19.4779 14.9142C19.3882 15.239 19.1069 15.5 18.7113 15.5H4.3608C3.94987 15.5 3.67157 15.2338 3.59413 14.8903L2.4679 9.5Z" fill="#6B6B6B"/>
</svg>
