<svg width="20" height="18" viewBox="0 0 20 18" fill="none" xmlns="http://www.w3.org/2000/svg">
<path d="M19.8542 8.24439L10.5204 0.61596C10.2172 0.368248 9.78181 0.368248 9.4788 0.61596L7.08808 2.57025V1.55591C7.08808 1.33683 6.91075 1.15985 6.69167 1.15985H4.39106C4.17197 1.15985 3.99465 1.337 3.99465 1.55591V5.09844L0.145177 8.24439C-0.0244571 8.38267 -0.0491532 8.63253 0.0890756 8.80199C0.16756 8.89765 0.281671 8.94791 0.396765 8.94791C0.484907 8.94791 0.573339 8.91835 0.64708 8.85855L2.64533 7.22497V17.1734C2.64533 17.3923 2.82265 17.5697 3.04127 17.5697H16.9582C17.1769 17.5697 17.3546 17.3924 17.3546 17.1734V7.2252L19.3528 8.85878C19.4265 8.91876 19.5152 8.94814 19.6031 8.94814C19.7178 8.94814 19.8319 8.89782 19.9104 8.80216C20.0485 8.63253 20.0238 8.38302 19.8542 8.24439ZM4.78729 1.95198H6.29514V3.2179L4.78729 4.45039V1.95198ZM16.5621 16.777H3.43745V6.57737L9.66041 1.49131C9.85786 1.32989 10.1414 1.32989 10.3389 1.49131L16.5621 6.57737V16.777V16.777Z" fill="#6B6B6B" stroke="#6B6B6B" stroke-width="0.8" stroke-linejoin="round"/>
</svg>
