<svg width="20" height="20" viewBox="0 0 20 20" fill="none" xmlns="http://www.w3.org/2000/svg">
<path d="M20 9.97644C19.9998 9.63019 19.8298 9.31506 19.5668 9.17334L18.0458 8.35394L19.5669 7.53455C19.83 7.39283 20 7.07752 20 6.73145C20 6.3852 19.83 6.07007 19.5668 5.92817L13.2716 2.53724C13.2664 2.53431 13.2612 2.53138 13.256 2.52882L10.3006 0.936905C10.1095 0.833633 9.89057 0.833817 9.69953 0.936722L9.69969 0.936539L0.433044 5.92817C0.169983 6.07007 1.02552e-07 6.3852 1.02552e-07 6.73145C1.02552e-07 7.07752 0.169983 7.39283 0.433196 7.53473L1.95419 8.35394L0.433196 9.17334C0.170135 9.31506 1.02552e-07 9.63019 1.02552e-07 9.97644C-0.000152485 10.3227 0.169983 10.6378 0.433196 10.7797L1.99783 11.6226L0.433044 12.4656C0.169983 12.6073 1.02552e-07 12.9226 1.02552e-07 13.2687C1.02552e-07 13.6149 0.169983 13.93 0.433196 14.072L9.69953 19.0634C9.79505 19.115 9.89759 19.1407 10.0001 19.1407C10.1025 19.1407 10.2049 19.1148 10.3003 19.0636L19.5669 14.0718C19.83 13.93 20 13.6147 20 13.2687C20 12.9224 19.83 12.6073 19.5668 12.4654L18.0021 11.6226L19.5669 10.7797C19.83 10.638 20 10.3227 20 9.97644V9.97644ZM6.99461 3.93507L8.58763 4.79328L6.87575 5.71558L5.30578 4.84492L6.99461 3.93507ZM10.0183 5.56415L11.7508 6.49744L10.0181 7.45838L8.28566 6.49744L10.0183 5.56415ZM14.7125 4.85481L13.1607 5.7154L11.449 4.79328L13.0237 3.94496L14.7125 4.85481ZM8.62135 8.23291L6.63558 9.33429L4.82757 8.36035L6.86873 7.26081L8.62135 8.23291ZM10.0181 9.00745L11.9656 10.0876L9.99998 11.1465L8.05266 10.0977L10.0181 9.00745ZM13.3827 9.3244L11.4148 8.23291L13.1677 7.26081L15.1906 8.35065L13.3827 9.3244ZM16.6214 7.57978L14.5776 6.47876L16.1294 5.61799L18.1964 6.73145L16.6214 7.57978ZM9.99998 2.31624L11.5928 3.17427L10.0183 4.02259L8.42543 3.16438L9.99998 2.31624ZM3.88869 5.60828L5.45867 6.47895L3.3969 7.58966L1.80359 6.73145L3.88869 5.60828ZM18.1964 13.2687L9.99998 17.6839L1.80359 13.2687L3.42864 12.3934L9.69999 15.7715C9.79536 15.8228 9.89759 15.8486 9.99998 15.8484C10.1024 15.8484 10.2048 15.8228 10.3003 15.7713L16.5713 12.3934L18.1964 13.2687ZM9.99998 14.3917L1.80359 9.97644L3.38485 9.12463L9.69953 12.5262C9.79505 12.5776 9.89759 12.6034 10.0001 12.6034C10.1025 12.6034 10.2049 12.5776 10.3003 12.5262L16.6151 9.12463L18.1964 9.97644L9.99998 14.3917Z" fill="#6B6B6B"/>
</svg>
