<svg width="21" height="17" viewBox="0 0 21 17" fill="none" xmlns="http://www.w3.org/2000/svg">
<path d="M3 0.5C1.76625 0.5 0.75 1.53238 0.75 2.78571V7.95143C0.2925 8.372 0 8.9739 0 9.64286V16.5H3.75V14.9762H17.25V16.5H21V9.64286C21 8.9739 20.7075 8.372 20.25 7.95143V2.78571C20.25 1.53238 19.2337 0.5 18 0.5H3ZM3 2.02381H18C18.4163 2.02381 18.75 2.36286 18.75 2.78571V7.35714H17.25V6.59524C17.25 5.3419 16.2337 4.30952 15 4.30952H12C11.4247 4.30952 10.8997 4.5381 10.5 4.90381C10.0898 4.5236 9.55524 4.3118 9 4.30952H6C4.76625 4.30952 3.75 5.3419 3.75 6.59524V7.35714H2.25V2.78571C2.25 2.36286 2.58375 2.02381 3 2.02381ZM6 5.83333H9C9.41625 5.83333 9.75 6.17238 9.75 6.59524V7.35714H5.25V6.59524C5.25 6.17238 5.58375 5.83333 6 5.83333ZM12 5.83333H15C15.4163 5.83333 15.75 6.17238 15.75 6.59524V7.35714H11.25V6.59524C11.25 6.17238 11.5837 5.83333 12 5.83333ZM2.25 8.88095H18.75C19.1663 8.88095 19.5 9.22 19.5 9.64286V14.9762H18.75V13.4524H2.25V14.9762H1.5V9.64286C1.5 9.22 1.83375 8.88095 2.25 8.88095Z" fill="#6B6B6B"/>
</svg>
