<svg width="14" height="15" viewBox="0 0 14 15" fill="none" xmlns="http://www.w3.org/2000/svg"><path d="M11.108 2.234A5.883 5.883 0 006.921.5a5.883 5.883 0 00-4.187 1.734A5.883 5.883 0 001 6.421c0 3.2 3.025 5.861 4.65 7.29.226.2.421.371.577.516.195.182.444.273.694.273.25 0 .5-.09.695-.273.155-.145.35-.316.576-.515 1.625-1.43 4.65-4.091 4.65-7.29a5.883 5.883 0 00-1.734-4.188zM7.65 13.096c-.23.203-.43.378-.594.532a.198.198 0 01-.27 0c-.164-.154-.363-.329-.594-.532C4.664 11.752 1.82 9.25 1.82 6.421a5.107 5.107 0 015.101-5.1 5.107 5.107 0 015.101 5.1c0 2.829-2.844 5.33-4.372 6.675z" fill="#707C80" stroke="#707C80" stroke-width=".5"/><path d="M6.921 3.588a2.612 2.612 0 00-2.609 2.61c0 1.438 1.17 2.609 2.61 2.609 1.438 0 2.609-1.17 2.609-2.61 0-1.438-1.17-2.609-2.61-2.609zm0 4.399c-.986 0-1.789-.803-1.789-1.79 0-.986.803-1.789 1.79-1.789.986 0 1.789.803 1.789 1.79 0 .986-.803 1.789-1.79 1.789z" fill="#707C80" stroke="#707C80" stroke-width=".5"/></svg>