<svg version="1.2" baseProfile="tiny-ps" xmlns="http://www.w3.org/2000/svg" viewBox="0 0 12 17" width="12" height="17">
	<title>pin-svg</title>
	<style>
		tspan { white-space:pre }
		.shp0 { fill: #ec7f07 } 
	</style>
	<path id="Layer" fill-rule="evenodd" class="shp0" d="M0.25 6.25C0.25 3.07 2.82 0.5 6 0.5C9.18 0.5 11.75 3.07 11.75 6.25C11.75 9.68 8.12 14.4 6.63 16.2C6.3 16.6 5.7 16.6 5.38 16.2C3.88 14.4 0.25 9.68 0.25 6.25ZM3.95 6.25C3.95 7.39 4.87 8.31 6 8.31C7.13 8.31 8.05 7.39 8.05 6.25C8.05 5.12 7.13 4.2 6 4.2C4.87 4.2 3.95 5.12 3.95 6.25Z" />
</svg>