<svg width="12" height="17" viewBox="0 0 12 17" fill="none" xmlns="http://www.w3.org/2000/svg">
<path fill-rule="evenodd" clip-rule="evenodd" d="M0.247559 6.25244C0.247559 3.07216 2.81972 0.5 6 0.5C9.18027 0.5 11.7524 3.07216 11.7524 6.25244C11.7524 9.67925 8.12018 14.4045 6.63277 16.2042C6.30406 16.5986 5.70416 16.5986 5.37545 16.2042C3.87981 14.4045 0.247559 9.67925 0.247559 6.25244ZM3.94556 6.25244C3.94556 7.38649 4.86595 8.30688 6 8.30688C7.13405 8.30688 8.05444 7.38649 8.05444 6.25244C8.05444 5.11839 7.13405 4.198 6 4.198C4.86595 4.198 3.94556 5.11839 3.94556 6.25244Z" fill="#0072C7"/>
</svg>
