<svg width="20" height="20" viewBox="0 0 20 20" fill="none" xmlns="http://www.w3.org/2000/svg">
<g id="3d_rotation_24px">
<path id="icon/action/3d_rotation_24px" fill-rule="evenodd" clip-rule="evenodd" d="M13.7328 2.09663L12.6244 3.20485L9.44943 0.0218395C11.4828 -0.103148 13.2828 0.413467 14.6744 1.15506C17.4078 2.60491 19.3744 5.27131 19.8744 8.446C19.9328 8.78763 19.6994 9.1126 19.3578 9.16259C19.0078 9.22092 18.6911 8.98761 18.6411 8.64598C18.1828 5.73793 16.3078 3.31318 13.7328 2.09663ZM6.26584 17.9034L7.37418 16.7952L10.5492 19.9782C8.51584 20.1032 6.71584 19.5866 5.32418 18.845C2.59084 17.3951 0.624177 14.7287 0.124177 11.554C0.0658436 11.2124 0.299177 10.8874 0.640844 10.8374C0.990843 10.7791 1.30751 11.0124 1.35751 11.3541C1.81584 14.2621 3.69084 16.6869 6.26584 17.9034Z" fill="#EC7F07"/>
<g id="directions_walk_24px">
<path id="icon/maps/directions_walk_24px" fill-rule="evenodd" clip-rule="evenodd" d="M11.4581 5.74664C11.4581 6.28136 11.0206 6.71886 10.4859 6.71886C9.95117 6.71886 9.51367 6.28136 9.51367 5.74664C9.51367 5.21191 9.95117 4.77441 10.4859 4.77441C11.0206 4.77441 11.4581 5.21191 11.4581 5.74664ZM7.44262 14.6473L8.68707 8.37162L7.81207 8.7119V9.87856C7.81207 10.1459 7.59332 10.3647 7.32595 10.3647C7.05859 10.3647 6.83984 10.1459 6.83984 9.87856V8.72648C6.83984 8.33273 7.07318 7.98273 7.4329 7.82718L9.29471 7.03967C9.76623 6.84037 10.3107 7.01537 10.5829 7.44801L11.069 8.22579C11.3947 8.7994 12.0072 9.2369 12.7461 9.35843C12.9843 9.39731 13.1593 9.59662 13.1593 9.83481C13.1593 10.1313 12.8968 10.3647 12.6051 10.3209C11.7593 10.1848 11.0058 9.75218 10.4857 9.1494L10.194 10.6077L10.9135 11.2931C11.1079 11.4779 11.2148 11.7306 11.2148 11.998V14.7397C11.2148 15.007 10.9961 15.2258 10.7287 15.2258C10.4614 15.2258 10.2426 15.007 10.2426 14.7397V12.3091L9.22179 11.3369L8.43429 14.8466C8.38082 15.0702 8.18637 15.2258 7.9579 15.2258H7.91901C7.61276 15.2258 7.37943 14.9438 7.44262 14.6473Z" fill="#EC7F07"/>
</g>
</g>
</svg>
